PathFileType	4	(X/Y/Z)	C:\Users\Caesar\Desktop\毕业设计\1-评估老年人缺少的力\Data\s2\T_01_fixed.trc	Maker trajectories (.TRC) by Lee-Son ToolBox																																																																											
DataRate	CameraRate	NumFrames	NumMarkers	Units	OrigDataRate	OrigDataStartFrame	OrigNumFrames																																																																								
100	100	9	26	mm	100	126	1000																																																																								
Frame#	Time	HEAD			C7			T10			STERN			LSHO			LELB			RSHO			RELB			LASI			RASI			LPSI			RPSI			LHIP			LTHI			LKNE			LTIB			LANK			LHEE			LTOE			RHIP			RTHI			RKNE			RTIB			RANK			RHEE			RTOE		
		X1	Y1	Z1	X2	Y2	Z2	X3	Y3	Z3	X4	Y4	Z4	X5	Y5	Z5	X6	Y6	Z6	X7	Y7	Z7	X8	Y8	Z8	X9	Y9	Z9	X10	Y10	Z10	X11	Y11	Z11	X12	Y12	Z12	X13	Y13	Z13	X14	Y14	Z14	X15	Y15	Z15	X16	Y16	Z16	X17	Y17	Z17	X18	Y18	Z18	X19	Y19	Z19	X20	Y20	Z20	X21	Y21	Z21	X22	Y22	Z22	X23	Y23	Z23	X24	Y24	Z24	X25	Y25	Z25	X26	Y26	Z26
																																																																															
126	1.25	1077.84	1644.2	1582.95	863.864	1504.43	1552.71	778.038	1340.88	1555.2	1011.39	1354.43	1562.54	914.239	1483.81	1413.69	972.485	1161.18	1262.61	903.626	1474.86	1730.37	954.294	1117.41	1794.37	945.896	1046.62	1420.01	942.985	1041.84	1674.96	776.891	1091.89	1504.08	785.178	1079.71	1618.45	850.55	967.187	1379.83	847.166	708.503	1425.93	733.48	587.208	1430.21	641.709	414.596	1452.84	530.743	290.467	1475.42	474.903	273.533	1486.95	683.585	221.2	1536.2	916.957	969.137	1717.18	1012.6	843.286	1695.93	1044.54	631.349	1664.45	1091.45	539.776	1667.08	1160.69	263.002	1632.08	1128.92	223.054	1613.27	1340.2	297.836	1596.99
127	1.26	1078.04	1643.44	1583.23	864.309	1503.02	1553.44	778.949	1338.83	1556.19	1011.83	1353.94	1563.81	914.243	1482.07	1414.25	971.654	1158.3	1264.26	903.857	1473.39	1730.92	954.593	1115.79	1794.29	948.217	1044.6	1421.26	944.848	1040.93	1675.81	778.774	1090.08	1504.56	786.85	1078.31	1619.08	853.062	964.765	1380.58	852.985	705.871	1426.19	739.198	584.908	1430.42	639.945	417.328	1451.35	523.675	297.588	1473.48	467.456	283.983	1485.03	669.056	220.889	1536.38	919.583	968.589	1718.06	1016.02	843.501	1695.34	1047.92	631.217	1663.32	1093	538.402	1665.36	1152.12	261.466	1630.64	1118.59	223.685	1611.79	1332.74	287.939	1594.48
128	1.27	1078.29	1643.16	1583.47	864.86	1502.1	1554.22	779.864	1337.36	1557.25	1012.31	1353.82	1565.05	914.338	1480.79	1414.82	970.872	1155.96	1265.96	904.303	1472.41	1731.46	954.853	1114.7	1794.38	950.252	1043.04	1422.55	946.594	1040.58	1676.65	780.441	1088.72	1505.05	788.362	1077.43	1619.73	855.531	962.62	1381.46	860.076	703.398	1426.41	746.831	582.51	1430.49	640.093	420.558	1449.64	518.574	305.759	1471.36	462.15	296.02	1482.9	655.096	220.645	1536.47	922.037	968.679	1718.93	1019.29	844.487	1694.58	1051.45	631.772	1662.4	1094.39	537.531	1663.94	1142.08	260.172	1629.82	1106.66	224.433	1611.04	1323.83	277.78	1592.63
129	1.28	1078.61	1643.33	1583.67	865.487	1501.69	1555.02	780.741	1336.51	1558.36	1012.82	1354.03	1566.23	914.51	1479.98	1415.38	970.142	1154.21	1267.67	904.97	1471.94	1732	955.068	1114.15	1794.62	951.919	1041.98	1423.85	948.166	1040.81	1677.5	781.829	1087.82	1505.57	789.667	1077.06	1620.39	857.895	960.789	1382.47	868.336	701.173	1426.57	756.354	580.087	1430.38	642.292	424.232	1447.78	515.666	314.912	1469.09	459.239	309.509	1480.58	642.036	220.521	1536.38	924.216	969.341	1719.81	1022.21	846.056	1693.8	1054.81	632.832	1661.74	1095.4	537.079	1662.84	1130.96	259.155	1629.51	1093.63	225.221	1610.87	1313.75	267.992	1591.4
130	1.29	1078.99	1643.88	1583.83	866.147	1501.79	1555.82	781.541	1336.31	1559.5	1013.32	1354.53	1567.28	914.735	1479.66	1415.91	969.474	1153.08	1269.37	905.846	1472	1732.53	955.235	1114.14	1795	953.163	1041.44	1425.14	949.524	1041.6	1678.38	782.897	1087.37	1506.14	790.738	1077.17	1621.09	860.092	959.316	1383.61	877.606	699.301	1426.65	767.662	577.74	1430.06	646.614	428.273	1445.85	515.11	324.909	1466.68	458.898	324.191	1478.09	630.268	220.586	1536.07	926.046	970.49	1720.69	1024.61	847.99	1693.12	1057.62	634.184	1661.35	1095.77	536.927	1662.07	1119.06	258.427	1629.54	1079.94	225.988	1611.13	1302.74	259.076	1590.7
131	1.3	1079.43	1644.77	1583.94	866.793	1502.37	1556.58	782.23	1336.74	1560.65	1013.8	1355.29	1568.15	914.971	1479.83	1416.41	968.878	1152.58	1271.03	906.912	1472.6	1733.03	955.35	1114.68	1795.5	953.949	1041.43	1426.37	950.648	1042.91	1679.3	783.619	1087.36	1506.8	791.564	1077.74	1621.84	862.06	958.245	1384.85	887.682	697.904	1426.64	780.57	575.603	1429.52	653.053	432.589	1443.91	516.982	335.539	1464.18	461.195	339.684	1475.5	620.237	220.923	1535.46	927.484	972.039	1721.59	1026.37	850.06	1692.68	1059.54	635.61	1661.22	1095.23	536.941	1661.61	1106.61	257.969	1629.79	1065.91	226.687	1611.65	1290.98	251.37	1590.4
132	1.31	1079.94	1645.93	1584.01	867.381	1503.42	1557.28	782.781	1337.78	1561.8	1014.2	1356.3	1568.82	915.169	1480.46	1416.86	968.365	1152.71	1272.62	908.137	1473.7	1733.46	955.412	1115.76	1796.13	954.27	1041.93	1427.54	951.53	1044.68	1680.25	783.992	1087.78	1507.59	792.149	1078.73	1622.69	863.742	957.626	1386.19	898.331	697.108	1426.52	794.824	573.832	1428.77	661.518	437.085	1442.06	521.269	346.524	1461.62	466.081	355.505	1472.87	612.419	221.616	1534.49	928.514	973.903	1722.53	1027.39	852.044	1692.58	1060.22	636.919	1661.32	1093.52	536.998	1661.42	1093.78	257.743	1630.12	1051.73	227.29	1612.3	1278.63	245.047	1590.36
133	1.32	1080.51	1647.31	1584.02	867.873	1504.92	1557.9	783.177	1339.38	1562.94	1014.49	1357.57	1569.25	915.277	1481.53	1417.23	967.939	1153.45	1274.11	909.481	1475.3	1733.82	955.416	1117.37	1796.88	954.137	1042.95	1428.61	952.173	1046.84	1681.2	784.026	1088.65	1508.51	792.502	1080.15	1623.63	865.089	957.511	1387.6	909.313	697.043	1426.27	810.121	572.597	1427.86	671.847	441.673	1440.36	527.874	357.533	1459.06	473.4	371.103	1470.28	607.3	222.731	1533.1	929.139	976.013	1723.5	1027.61	853.75	1692.89	1059.43	637.971	1661.64	1090.46	537.002	1661.46	1080.68	257.702	1630.45	1037.54	227.783	1612.95	1265.8	240.134	1590.46
134	1.33	1081.13	1648.89	1583.96	868.247	1506.84	1558.42	783.409	1341.49	1564.08	1014.62	1359.09	1569.46	915.24	1483.01	1417.51	967.595	1154.76	1275.49	910.901	1477.36	1734.09	955.36	1119.47	1797.73	953.581	1044.47	1429.59	952.578	1049.34	1682.13	783.749	1089.96	1509.57	792.639	1081.98	1624.69	866.069	957.948	1389.05	920.4	697.827	1425.91	826.133	572.068	1426.82	683.82	446.277	1438.84	536.634	368.207	1456.59	482.902	385.903	1467.84	605.333	224.299	1531.24	929.368	978.316	1724.52	1026.98	855.04	1693.61	1057.03	638.695	1662.11	1085.91	536.899	1661.69	1067.35	257.795	1630.73	1023.39	228.166	1613.53	1252.6	236.541	1590.61
